<?xml version="1.0" encoding="UTF-8" standalone="no"?>
<svg
   xmlns:dc="http://purl.org/dc/elements/1.1/"
   xmlns:cc="http://creativecommons.org/ns#"
   xmlns:rdf="http://www.w3.org/1999/02/22-rdf-syntax-ns#"
   xmlns:svg="http://www.w3.org/2000/svg"
   xmlns="http://www.w3.org/2000/svg"
   xmlns:sodipodi="http://sodipodi.sourceforge.net/DTD/sodipodi-0.dtd"
   xmlns:inkscape="http://www.inkscape.org/namespaces/inkscape"
   id="a53c91be-5d04-4275-bba8-62ac1211a331"
   data-name="Layer 1"
   width="1041.32"
   height="577.51"
   viewBox="0 0 1041.32 577.51"
   version="1.1"
   sodipodi:docname="undraw_pizza_sharing_wxop.svg"
   inkscape:version="0.92.5 (2060ec1f9f, 2020-04-08)">
  <metadata
     id="metadata315">
    <rdf:RDF>
      <cc:Work
         rdf:about="">
        <dc:format>image/svg+xml</dc:format>
        <dc:type
           rdf:resource="http://purl.org/dc/dcmitype/StillImage" />
      </cc:Work>
    </rdf:RDF>
  </metadata>
  <defs
     id="defs313" />
  <sodipodi:namedview
     pagecolor="#ffffff"
     bordercolor="#666666"
     borderopacity="1"
     objecttolerance="10"
     gridtolerance="10"
     guidetolerance="10"
     inkscape:pageopacity="0"
     inkscape:pageshadow="2"
     inkscape:window-width="1366"
     inkscape:window-height="705"
     id="namedview311"
     showgrid="false"
     inkscape:zoom="0.36588178"
     inkscape:cx="520.65997"
     inkscape:cy="288.755"
     inkscape:window-x="1352"
     inkscape:window-y="760"
     inkscape:window-maximized="1"
     inkscape:current-layer="a53c91be-5d04-4275-bba8-62ac1211a331" />
  <title
     id="title2">pizza sharing</title>
  <g
     id="g1275"
     transform="matrix(0.76828758,0,0,0.76828758,126.85357,85.153911)">
    <path
       id="path4"
       transform="translate(-79.34,-161.25)"
       d="m 1040.82,622.79 q -1.74,3.75 -3.47,7.4 -2.7,5.67 -5.33,11.12 c -0.78,1.61 -1.56,3.19 -2.32,4.77 -8.6,17.57 -16.63,33.11 -23.45,45.89 a 73.21,73.21 0 0 1 -63.81,38.73 l -151.65,1.65 h -1.6 l -13,0.14 -11.12,0.12 L 731,733 h -1.38 l -17.36,0.19 h -0.53 l -107,1.16 -95.51,1 -11.11,0.12 -69,0.75 H 429 l -44.75,0.48 h -0.48 l -141.5,1.53 -42.33,0.46 a 88,88 0 0 1 -10.79,-0.54 v 0 c -1.22,-0.14 -2.44,-0.3 -3.65,-0.49 A 87.38,87.38 0 0 1 134.21,710.12 C 116,690 102.75,666.7 93.85,641.31 q -1.93,-5.49 -3.6,-11.12 C 59.44,526 97,391.64 164.6,301.75 q 4.25,-5.64 8.64,-11 l 0.07,-0.08 c 20.79,-25.52 44.1,-46.84 68.93,-62 44,-26.91 92.75,-34.49 140.7,-11.9 40.57,19.12 78.45,28.11 115.17,30.55 3.71,0.24 7.42,0.42 11.11,0.53 84.23,2.65 163.17,-27.7 255.87,-47.29 3.69,-0.78 7.39,-1.55 11.12,-2.28 66.13,-13.16 139.49,-20.1 226.73,-5.51 a 189.09,189.09 0 0 1 26.76,6.4 q 5.77,1.86 11.12,4 c 41.64,16.94 64.35,48.24 74,87.46 q 1.37,5.46 2.37,11.11 c 17.11,94.34 -33,228.16 -76.37,321.05 z"
       inkscape:connector-curvature="0"
       style="fill:#f2f2f2" />
    <path
       id="path6"
       transform="translate(-79.34,-161.25)"
       d="m 576.36,630.19 a 95.22,95.22 0 0 1 -1.87,11.12 h 93.7 v -11.12 z m -78.25,62.81 11.11,-0.09 v -27.47 c -3.81,-0.17 -7.52,-0.34 -11.11,-0.52 z M 265.19,630.19 v 11.12 h 198.5 v -11.12 z m 849.68,-339.55 h -74 v -87.46 q -5.35,-2.18 -11.12,-4 v 91.5 H 776.21 v -92.43 c -3.73,0.73 -7.43,1.5 -11.12,2.28 v 90.11 H 509.22 v -42.82 c -3.69,-0.11 -7.4,-0.29 -11.11,-0.53 v 43.35 H 242.24 v -62 c -24.83,15.16 -48.14,36.48 -68.93,62 h -0.07 v 0.08 q -4.4,5.4 -8.64,11 h 8.64 v 328.47 h -83 q 1.66,5.63 3.6,11.12 h 79.39 v 93.62 a 87,87 0 0 0 12.2,2.79 c 1.21,0.19 2.43,0.35 3.65,0.49 v 0 a 88,88 0 0 0 10.79,0.54 l 42.33,-0.46 v -97 h 255.91 v 94.21 l 11.11,-0.12 v -94.07 h 255.87 v 91.31 l 11.12,-0.12 v -91.19 h 253.49 v 4.77 c 0.76,-1.58 1.54,-3.16 2.32,-4.77 q 2.63,-5.44 5.33,-11.12 1.73,-3.65 3.47,-7.4 v -321 h 76.42 q -1.01,-5.69 -2.37,-11.15 z M 242.24,630.19 V 301.75 h 255.87 v 328.44 z m 267,0 V 301.75 h 255.85 v 328.44 z m 520.48,0 H 776.21 V 301.75 h 253.49 z"
       inkscape:connector-curvature="0"
       style="opacity:0.1" />
    <path
       id="path8"
       transform="translate(-79.34,-161.25)"
       d="m 914.07,514.33 a 186.94,186.94 0 0 0 -57.35,-64.25 12.69,12.69 0 0 0 -5.73,-2.16 c 2.81,-18.48 2.22,-38.9 -8.21,-54.3 -24.75,-36.54 -150.85,1.17 -150.85,1.17 -88.39,-30.64 -165,8.25 -165,8.25 0,0 -97.82,-15.32 -142.6,-3.53 -21.12,5.56 -26.25,27.1 -25.77,48.32 h -0.07 a 12.45,12.45 0 0 0 -9.75,4.68 c -11.91,14.88 -47.89,60.71 -46.91,69.56 1.18,10.61 40.07,148.49 38.31,215.08 l 543.29,-6 c 0,0 9,-134 31.51,-207.35 a 12.44,12.44 0 0 0 -0.87,-9.47 z"
       inkscape:connector-curvature="0"
       style="fill:#3f3d56" />
    <polygon
       id="polygon10"
       points="290.27,316.63 309.12,403.84 309.34,444.32 267.88,361.42 "
       style="opacity:0.1" />
    <polygon
       id="polygon12"
       points="759.31,316.63 733.34,399.32 738.34,446.32 781.7,361.42 "
       style="opacity:0.1" />
    <polygon
       id="polygon14"
       points="733.38,399.13 738.1,446.27 309.12,445.09 307.48,401.46 "
       style="fill:#3f3d56" />
    <polygon
       id="polygon16"
       points="733.38,399.13 738.1,446.27 309.12,445.09 307.48,401.46 "
       style="opacity:0.1" />
    <rect
       id="rect18"
       rx="10.47"
       height="50.68"
       width="433"
       y="441.67999"
       x="307.34"
       style="opacity:0.1;fill:#ffffff" />
    <path
       id="path20"
       transform="translate(-79.34,-161.25)"
       d="m 731.07,433.39 c 0,0 -1.44,-2 -3.14,-0.92 -0.81,0.53 -4.62,5.33 -8.36,10.21 -1.84,2.39 -3.67,4.8 -5.12,6.72 -1.79,2.36 -3,4 -3,4 l -0.72,1.35 -4.37,8.17 -4.11,7.68 -1,3.62 13.88,4.72 15.8,-4.31 -0.68,-2.93 -0.12,-0.5 0.13,-6.74 0.36,-19 0.17,-8.55 v -1 z"
       inkscape:connector-curvature="0"
       style="fill:#ffe09c" />
    <path
       id="path22"
       transform="translate(-79.34,-161.25)"
       d="m 699.29,480.23 c 0,0 15,5.35 22.69,2.55 0,0 6.65,-2.12 9.27,-4.17 0,0 2.79,-1.46 -1,-6.22 0,0 -9.71,5.95 -18.9,3.61 l -9.19,-2.35 z"
       inkscape:connector-curvature="0"
       style="fill:#e7c4c3" />
    <ellipse
       id="ellipse24"
       transform="rotate(-30.37,377.10339,535.43568)"
       ry="4.1599998"
       rx="4.9099998"
       cy="469.92001"
       cx="713.91998"
       style="fill:#ff7f8e" />
    <ellipse
       id="ellipse26"
       transform="rotate(-30.37,387.07691,523.46647)"
       ry="4.1599998"
       rx="4.9099998"
       cy="457.95999"
       cx="723.89001"
       style="fill:#ff7f8e" />
    <path
       id="path28"
       transform="translate(-79.34,-161.25)"
       d="m 730.25,464.46 a 5.14,5.14 0 0 0 -4.68,0.37 c -2.34,1.37 -3.3,4.09 -2.13,6.07 1.17,1.98 4,2.48 6.33,1.11 0.16,-0.1 0.32,-0.2 0.47,-0.31 l -0.12,-0.5 z"
       inkscape:connector-curvature="0"
       style="fill:#ff7f8e" />
    <path
       id="path30"
       transform="translate(-79.34,-161.25)"
       d="m 713.28,456.53 a 3.83,3.83 0 0 0 -2.56,-1.78 l -4.37,8.17 a 5.11,5.11 0 0 0 4.8,-0.32 c 2.34,-1.37 3.29,-4.09 2.13,-6.07 z"
       inkscape:connector-curvature="0"
       style="fill:#ff7f8e" />
    <path
       id="path32"
       transform="translate(-79.34,-161.25)"
       d="m 723,444.56 a 4,4 0 0 0 -3.41,-1.88 c -1.84,2.39 -3.67,4.8 -5.12,6.72 l 0.06,0.12 c 1.16,2 4,2.47 6.34,1.1 2.34,-1.37 3.27,-4.08 2.13,-6.06 z"
       inkscape:connector-curvature="0"
       style="fill:#ff7f8e" />
    <path
       id="path34"
       transform="translate(-79.34,-161.25)"
       d="m 730.78,436.9 a 5.62,5.62 0 0 0 -1.47,0.6 c -2.34,1.37 -3.29,4.09 -2.13,6.07 a 4,4 0 0 0 3.43,1.88 z"
       inkscape:connector-curvature="0"
       style="fill:#ff7f8e" />
    <path
       id="path36"
       transform="translate(-79.34,-161.25)"
       d="m 707.49,469.69 -0.8,-1.35 a 8.61,8.61 0 0 0 3.24,-1.8 c 0.06,-0.06 0.11,-0.13 0.16,-0.19 1,-1.26 0.79,1.36 0.79,1.36 0,0 -2.46,2.09 -3.39,1.98 z"
       inkscape:connector-curvature="0"
       style="fill:#94cc79" />
    <path
       id="path38"
       transform="translate(-79.34,-161.25)"
       d="m 719.29,467.6 -0.8,-1.36 a 8.68,8.68 0 0 0 3.24,-1.8 c 0,-0.06 0.11,-0.12 0.16,-0.19 1,-1.25 0.79,1.36 0.79,1.36 0,0 -2.46,2.1 -3.39,1.99 z"
       inkscape:connector-curvature="0"
       style="fill:#94cc79" />
    <path
       id="path40"
       transform="translate(-79.34,-161.25)"
       d="m 718.21,462 -0.8,-1.36 a 8.68,8.68 0 0 0 3.24,-1.79 c 0.05,-0.07 0.11,-0.13 0.16,-0.19 1,-1.26 0.79,1.35 0.79,1.35 0,0 -2.46,2.08 -3.39,1.99 z"
       inkscape:connector-curvature="0"
       style="fill:#94cc79" />
    <path
       id="path42"
       transform="translate(-79.34,-161.25)"
       d="m 719.64,451.9 -0.8,-1.36 a 8.68,8.68 0 0 0 3.24,-1.8 c 0,-0.06 0.11,-0.12 0.16,-0.19 1,-1.26 0.79,1.36 0.79,1.36 0,0 -2.46,2.09 -3.39,1.99 z"
       inkscape:connector-curvature="0"
       style="fill:#94cc79" />
    <path
       id="path44"
       transform="translate(-79.34,-161.25)"
       d="m 726.41,439.68 -0.79,-1.36 a 8.6,8.6 0 0 0 3.23,-1.8 1.46,1.46 0 0 0 0.16,-0.19 c 1,-1.25 0.8,1.36 0.8,1.36 0,0 -2.47,2.09 -3.4,1.99 z"
       inkscape:connector-curvature="0"
       style="fill:#94cc79" />
    <path
       id="path46"
       transform="translate(-79.34,-161.25)"
       d="m 725.65,452.15 -0.8,-1.36 a 8.6,8.6 0 0 0 3.24,-1.79 c 0,-0.07 0.11,-0.13 0.16,-0.19 1,-1.26 0.79,1.35 0.79,1.35 0,0 -2.46,2.1 -3.39,1.99 z"
       inkscape:connector-curvature="0"
       style="fill:#94cc79" />
    <path
       id="path48"
       transform="translate(-79.34,-161.25)"
       d="m 696.83,476 c 0,0 -1.92,5 2.46,4.2 a 17.34,17.34 0 0 0 3.87,-7.91 c 0,0 9.47,-20.75 12.27,-22.65 0,0 12.34,-16.87 13.67,-17.12 0,0 0.43,-1.64 -3.88,1.83 -4.31,3.47 -13.75,16.83 -13.75,16.83 l -9,14.67 -2.12,5.85 z"
       inkscape:connector-curvature="0"
       style="fill:#e7c4c3" />
    <path
       id="path50"
       transform="translate(-79.34,-161.25)"
       d="m 696.83,476 c 0,0 -1.92,5 2.46,4.2 a 17.34,17.34 0 0 0 3.87,-7.91 c 0,0 9.47,-20.75 12.27,-22.65 0,0 12.34,-16.87 13.67,-17.12 0,0 0.43,-1.64 -3.88,1.83 -4.31,3.47 -13.75,16.83 -13.75,16.83 l -9,14.67 -2.12,5.85 z"
       inkscape:connector-curvature="0"
       style="opacity:0.2;fill:#ffffff" />
    <path
       id="path52"
       transform="translate(-79.34,-161.25)"
       d="m 548.08,577.57 a 120.28,120.28 0 0 0 6.08,15.86 147.27,147.27 0 0 0 20.27,-5.78 c 0.21,-0.07 -3.79,-5.3 -4.21,-5.73 a 20.12,20.12 0 0 0 -5.73,-4.4 c -2.11,-0.92 -4.71,-0.22 -7,-0.1 q -4.68,0.24 -9.41,0.15 z"
       inkscape:connector-curvature="0"
       style="fill:#fbbebe" />
    <path
       id="path54"
       transform="translate(-79.34,-161.25)"
       d="m 564.53,585.78 c -3.44,-1.08 -5.54,-4.55 -6.94,-7.89 -1.4,-3.34 -2.53,-7 -5.19,-9.44 a 3.09,3.09 0 0 0 -2.34,1.76 29.32,29.32 0 0 1 -1.39,2.74 c -1.1,1.6 -3,2.38 -4.45,3.74 -1.45,1.36 -2.26,3.43 -3.77,4.8 -1.9,1.72 -4.58,2.15 -7.07,2.72 a 45.16,45.16 0 0 0 -11.08,4.1 18.59,18.59 0 0 1 -4.1,1.84 15.14,15.14 0 0 1 -4.8,0.16 l -11,-0.78 a 8.78,8.78 0 0 0 -2.94,0.12 5.36,5.36 0 0 0 -3.5,5.53 8.6,8.6 0 0 0 3.48,5.93 23.47,23.47 0 0 0 6.28,3.17 185,185 0 0 0 29.54,8.44 v 2.18 a 50.85,50.85 0 0 0 22.49,5.24 3.56,3.56 0 0 0 1.68,-0.29 3.64,3.64 0 0 0 1.42,-2.16 87.26,87.26 0 0 0 4.59,-24 18.24,18.24 0 0 0 -0.47,-6.17 c -0.6,-2 1.46,-1.15 -0.45,-1.93"
       inkscape:connector-curvature="0"
       style="fill:#2f2e41" />
    <path
       id="path56"
       transform="translate(-79.34,-161.25)"
       d="m 775.85,544.24 c -32.67,2 -65,-7.61 -97.66,-8.63 a 48,48 0 0 0 -12.15,0.78 c -4.2,0.94 -8.12,2.84 -12,4.66 -17.55,8.16 -35.69,14.92 -53.82,21.67 l -20.82,7.76 c -4.16,1.55 -8.47,3.12 -12.9,2.85 -2,-0.12 -4.43,-0.42 -5.54,1.23 -3.39,5 -1.79,12.39 0.45,18 0.72,1.82 2,3.8 3.9,4 1.37,0.14 2.65,-0.65 4,-1 3.79,-1 7.57,1.54 11.47,1.95 4.82,0.51 9.29,-2.23 13.84,-3.91 7.54,-2.79 15.79,-2.7 23.72,-4 13.3,-2.22 25.62,-8.39 37.14,-15.42 4.38,-2.68 8.82,-5.55 13.86,-6.53 5.79,-1.13 11.74,0.36 17.43,2 a 401.22,401.22 0 0 1 39.94,13.6 c 6.88,2.76 13.72,5.71 20.88,7.62 a 75.53,75.53 0 0 0 46.78,-2.73 c 5.22,-2.07 10.91,-5.72 11.21,-11.36 0.17,-3.22 -2.33,-6 -4,-8.8 -1.06,-1.77 -2.13,-3.53 -3.3,-5.23 -5.67,-8.26 -12.51,-19.1 -22.43,-18.51 z"
       inkscape:connector-curvature="0"
       style="fill:#2f2e41" />
    <path
       id="path58"
       transform="translate(-79.34,-161.25)"
       d="m 775.85,544.24 c -32.67,2 -65,-7.61 -97.66,-8.63 a 48,48 0 0 0 -12.15,0.78 c -4.2,0.94 -8.12,2.84 -12,4.66 -17.55,8.16 -35.69,14.92 -53.82,21.67 l -20.82,7.76 c -4.16,1.55 -8.47,3.12 -12.9,2.85 -2,-0.12 -4.43,-0.42 -5.54,1.23 -3.39,5 -1.79,12.39 0.45,18 0.72,1.82 2,3.8 3.9,4 1.37,0.14 2.65,-0.65 4,-1 3.79,-1 7.57,1.54 11.47,1.95 4.82,0.51 9.29,-2.23 13.84,-3.91 7.54,-2.79 15.79,-2.7 23.72,-4 13.3,-2.22 25.62,-8.39 37.14,-15.42 4.38,-2.68 8.82,-5.55 13.86,-6.53 5.79,-1.13 11.74,0.36 17.43,2 a 401.22,401.22 0 0 1 39.94,13.6 c 6.88,2.76 13.72,5.71 20.88,7.62 a 75.53,75.53 0 0 0 46.78,-2.73 c 5.22,-2.07 10.91,-5.72 11.21,-11.36 0.17,-3.22 -2.33,-6 -4,-8.8 -1.06,-1.77 -2.13,-3.53 -3.3,-5.23 -5.67,-8.26 -12.51,-19.1 -22.43,-18.51 z"
       inkscape:connector-curvature="0"
       style="opacity:0.1" />
    <path
       id="path60"
       transform="translate(-79.34,-161.25)"
       d="m 610.8,579.16 q 7.66,2.61 15.48,4.81 c 2.91,-4.78 8.36,-8.11 9.6,-13.57 a 0.93,0.93 0 0 0 -0.59,-1.26 28.83,28.83 0 0 0 -12.11,-3.55 c -3.36,-0.21 -4.89,3.29 -6.42,5.76 -0.61,0.99 -4.59,8.28 -5.96,7.81 z"
       inkscape:connector-curvature="0"
       style="fill:#fbbebe" />
    <path
       id="path62"
       transform="translate(-79.34,-161.25)"
       d="m 618,575.67 a 11.19,11.19 0 0 1 -7.52,-4.94 c -0.72,-1.26 -1.49,-3 -2.93,-2.87 -1.44,0.13 -2,1.69 -2.26,3 a 85.2,85.2 0 0 1 -4.21,14.53 27.27,27.27 0 0 1 -9,11.88 c -1.9,1.31 -4,2.3 -5.86,3.68 -1.67,1.23 -3.12,2.79 -5,3.74 a 26.67,26.67 0 0 1 -3.8,1.42 26.57,26.57 0 0 0 -5.44,2.65 10.82,10.82 0 0 0 -3.7,3.54 5.17,5.17 0 0 0 -0.31,5 5.36,5.36 0 0 0 3.63,2.48 15.47,15.47 0 0 0 4.51,0.12 c 5.95,-0.44 11.9,-1 17.85,-1.5 a 52.18,52.18 0 0 0 7.48,-1 c 1.31,-0.32 2.58,-0.73 3.88,-1.07 a 32.64,32.64 0 0 1 6.8,-1 6,6 0 0 1 2,0.18 c 1.38,0.45 2.35,1.82 3.78,2.1 a 6,6 0 0 0 2.69,-0.36 c 4.28,-1.17 8.79,-1.14 13.22,-1.38 2,-0.1 4.24,-0.47 5.14,-2.22 1.12,-2.18 -0.74,-4.62 -1.47,-7 a 21.14,21.14 0 0 1 -0.62,-4.57 27.81,27.81 0 0 0 -3.28,-10.85 c -1.51,-2.78 -3.58,-5.86 -2.52,-8.85 0.36,-1 1.08,-2 1,-3 -0.34,-4.79 -11.35,-3.14 -14.06,-3.71 z"
       inkscape:connector-curvature="0"
       style="fill:#2f2e41" />
    <path
       id="path64"
       transform="translate(-79.34,-161.25)"
       d="m 726.86,491.83 a 25.57,25.57 0 0 1 -13,-12.93 c -0.55,-1.24 -1,-2.53 -1.52,-3.78 a 28.86,28.86 0 0 0 -7.78,-10.81 3.76,3.76 0 0 0 -2.89,-1.22 3.1,3.1 0 0 0 -2.12,2.28 9.06,9.06 0 0 0 -0.22,3.49 62.43,62.43 0 0 0 1.42,8.16 l 1.58,7.21 a 13.25,13.25 0 0 0 1,3.22 11.22,11.22 0 0 0 2.65,3.18 c 1.45,1.34 2.92,2.63 4.41,3.89 a 12.37,12.37 0 0 0 7.65,3.4 c 6.48,1.2 13.08,2.94 18.56,7.17 -0.07,0 0,-4.84 -0.12,-5.39 -0.25,-1.45 -0.45,-2.89 -1.39,-3.87 -2.15,-2.2 -5.64,-2.83 -8.23,-4 z"
       inkscape:connector-curvature="0"
       style="fill:#fbbebe" />
    <path
       id="path66"
       transform="translate(-79.34,-161.25)"
       d="m 726.86,491.83 a 25.57,25.57 0 0 1 -13,-12.93 c -0.55,-1.24 -1,-2.53 -1.52,-3.78 a 28.86,28.86 0 0 0 -7.78,-10.81 3.76,3.76 0 0 0 -2.89,-1.22 3.1,3.1 0 0 0 -2.12,2.28 9.06,9.06 0 0 0 -0.22,3.49 62.43,62.43 0 0 0 1.42,8.16 l 1.58,7.21 a 13.25,13.25 0 0 0 1,3.22 11.22,11.22 0 0 0 2.65,3.18 c 1.45,1.34 2.92,2.63 4.41,3.89 a 12.37,12.37 0 0 0 7.65,3.4 c 6.48,1.2 13.08,2.94 18.56,7.17 -0.07,0 0,-4.84 -0.12,-5.39 -0.25,-1.45 -0.45,-2.89 -1.39,-3.87 -2.15,-2.2 -5.64,-2.83 -8.23,-4 z"
       inkscape:connector-curvature="0"
       style="opacity:0.1" />
    <ellipse
       id="ellipse68"
       ry="7.9899998"
       rx="7.9499998"
       cy="267.38"
       cx="714.04999"
       style="fill:#2f2e41" />
    <path
       id="path70"
       transform="translate(-79.34,-161.25)"
       d="m 788.47,423.8 c -2.15,-0.24 -4.55,-0.41 -6.28,0.91 a 8.5,8.5 0 0 0 -2.15,2.92 42.24,42.24 0 0 0 -4.13,9.73 c -0.71,2.92 -0.83,6 -1.71,8.84 -1.63,5.32 -5.8,9.81 -6.28,15.36 -0.21,2.48 0.21,5.39 -1.61,7.09 a 10.14,10.14 0 0 1 -1.42,1 10.8,10.8 0 0 0 -3.13,3.22 10.42,10.42 0 0 1 -2.22,3.07 c -1.62,1.2 -4.3,1.07 -5.1,2.93 -0.8,1.86 1.26,4 0.78,6 -0.39,1.64 -2.22,2.39 -3.48,3.51 -1.62,1.43 -2.36,3.58 -3,5.64 a 18.74,18.74 0 0 1 -15.2,-3.79 c 2.21,5.46 2.26,11.49 2.36,17.39 0,1.91 0,4.06 -1.4,5.39 6.33,0.14 12.5,1.85 18.67,3.25 2.7,0.61 5.63,1.14 8.14,0 a 13.11,13.11 0 0 0 3.73,-3 c 3.36,-3.41 6.88,-7.12 7.7,-11.85 0.46,-2.64 0,-5.36 0.14,-8 a 45.7,45.7 0 0 1 2,-9.76 115.57,115.57 0 0 0 3.57,-20.08 c 0.36,-4.18 4,-7.55 5.88,-11.3 3.6,-7.06 7.27,-14.42 7.54,-22.35 0.13,-2.62 -0.77,-5.83 -3.4,-6.12 z"
       inkscape:connector-curvature="0"
       style="fill:#2f2e41" />
    <path
       id="path72"
       transform="translate(-79.34,-161.25)"
       d="m 788.47,423.8 c -2.15,-0.24 -4.55,-0.41 -6.28,0.91 a 8.5,8.5 0 0 0 -2.15,2.92 42.24,42.24 0 0 0 -4.13,9.73 c -0.71,2.92 -0.83,6 -1.71,8.84 -1.63,5.32 -5.8,9.81 -6.28,15.36 -0.21,2.48 0.21,5.39 -1.61,7.09 a 10.14,10.14 0 0 1 -1.42,1 10.8,10.8 0 0 0 -3.13,3.22 10.42,10.42 0 0 1 -2.22,3.07 c -1.62,1.2 -4.3,1.07 -5.1,2.93 -0.8,1.86 1.26,4 0.78,6 -0.39,1.64 -2.22,2.39 -3.48,3.51 -1.62,1.43 -2.36,3.58 -3,5.64 a 18.74,18.74 0 0 1 -15.2,-3.79 c 2.21,5.46 2.26,11.49 2.36,17.39 0,1.91 0,4.06 -1.4,5.39 6.33,0.14 12.5,1.85 18.67,3.25 2.7,0.61 5.63,1.14 8.14,0 a 13.11,13.11 0 0 0 3.73,-3 c 3.36,-3.41 6.88,-7.12 7.7,-11.85 0.46,-2.64 0,-5.36 0.14,-8 a 45.7,45.7 0 0 1 2,-9.76 115.57,115.57 0 0 0 3.57,-20.08 c 0.36,-4.18 4,-7.55 5.88,-11.3 3.6,-7.06 7.27,-14.42 7.54,-22.35 0.13,-2.62 -0.77,-5.83 -3.4,-6.12 z"
       inkscape:connector-curvature="0"
       style="opacity:0.1" />
    <path
       id="path74"
       transform="translate(-79.34,-161.25)"
       d="m 781,551.12 c -6.8,-3.24 -11.78,-9.27 -17.28,-14.44 -10.5,-9.86 -23.35,-16.84 -34.39,-26.09 -7.32,-6.12 -13.86,-13.26 -21.9,-18.39 A 54.54,54.54 0 0 0 684,484 a 6.45,6.45 0 0 0 -2.87,0.14 6.82,6.82 0 0 0 -2.67,2.11 83.93,83.93 0 0 0 -9.46,13 C 655,523 635.12,543 618.65,565.07 a 3,3 0 0 0 -0.2,4 l 3.35,6.56 c 1.87,3.68 4.88,8 8.92,7.23 1.85,-0.34 3.32,-1.7 4.68,-3 l 15,-14.37 15.77,-15.08 c 9.24,-8.83 18.63,-17.87 24.66,-29.16 4.7,8.16 13.06,13.5 18.79,21 2.18,2.84 4,6 5.9,9 3.12,4.82 6.67,9.35 10.21,13.87 l 18.09,23.09 c 2.46,3.14 5,6.36 8.37,8.49 4.29,2.71 9.5,3.43 14.54,3.88 a 193.65,193.65 0 0 0 20.44,0.74 c 5.2,-0.09 10.56,-0.43 15.23,-2.74 4.67,-2.31 8.5,-7 8.26,-12.28 a 18.21,18.21 0 0 0 -2.61,-7.65 C 801.63,566.75 793.18,556.9 781,551.12 Z"
       inkscape:connector-curvature="0"
       style="fill:#2f2e41" />
    <ellipse
       id="ellipse76"
       ry="6.1500001"
       rx="6.1100001"
       cy="272.91"
       cx="718.94"
       style="fill:#e8e8f0" />
    <path
       id="path78"
       transform="translate(-79.34,-161.25)"
       d="m 796.93,429.54 a 11.65,11.65 0 0 1 0.67,8.82 34.34,34.34 0 0 1 -3.93,8.14 40.58,40.58 0 0 1 -5.11,7.29 c 9.43,0.46 18.58,-3.24 26.9,-7.73 6.7,-3.6 13.38,-8.06 17,-14.8 a 7.8,7.8 0 0 1 -6.25,-1.15 23.22,23.22 0 0 1 -4.78,-4.46 l -4.74,-5.33 a 21.08,21.08 0 0 1 -2.91,-3.82 10.71,10.71 0 0 1 -1.25,-6.18 35.09,35.09 0 0 1 -6.27,5.2 c -3.38,2.2 -7.11,3.8 -10.5,6 -1.2,0.77 -3.88,2 -3.19,3.59 0.69,1.59 3.43,2.75 4.36,4.43 z"
       inkscape:connector-curvature="0"
       style="fill:#fbbebe" />
    <path
       id="path80"
       transform="translate(-79.34,-161.25)"
       d="m 796.93,429.54 a 11.65,11.65 0 0 1 0.67,8.82 34.34,34.34 0 0 1 -3.93,8.14 40.58,40.58 0 0 1 -5.11,7.29 c 9.43,0.46 18.58,-3.24 26.9,-7.73 6.7,-3.6 13.38,-8.06 17,-14.8 a 7.8,7.8 0 0 1 -6.25,-1.15 23.22,23.22 0 0 1 -4.78,-4.46 l -4.74,-5.33 a 21.08,21.08 0 0 1 -2.91,-3.82 10.71,10.71 0 0 1 -1.25,-6.18 35.09,35.09 0 0 1 -6.27,5.2 c -3.38,2.2 -7.11,3.8 -10.5,6 -1.2,0.77 -3.88,2 -3.19,3.59 0.69,1.59 3.43,2.75 4.36,4.43 z"
       inkscape:connector-curvature="0"
       style="opacity:0.1" />
    <path
       id="path82"
       transform="translate(-79.34,-161.25)"
       d="m 797.06,430.47 c -1.77,3 -2.15,6.5 0,9.22 0.27,0.34 1.26,2.44 1.69,2.46 a 1.67,1.67 0 0 0 1.08,-0.55 c 2.29,-2.09 4,-4.76 6,-7.13 2,-2.37 4.55,-4.52 7.61,-5 3.69,-0.57 7.26,1.38 10.49,3.27 a 10.05,10.05 0 0 1 3.58,2.93 9.63,9.63 0 0 1 1.18,4 c 1.11,8.41 1.09,16.93 1.06,25.41 0,6.14 0,12.31 -1.2,18.33 -0.6,3.12 -1.5,6.17 -1.93,9.31 a 62.84,62.84 0 0 0 -0.37,8.35 v 11.68 a 29.76,29.76 0 0 0 0.45,6.4 c 0.55,2.56 1.76,4.92 2.57,7.41 a 48.82,48.82 0 0 1 1.71,8.76 l 1.6,12.09 c 0.5,3.81 0.87,8 -1.43,11 -1,1.38 -2.41,2.49 -3.46,3.87 -4,5.14 -2.69,12.49 -4.34,18.78 a 23.51,23.51 0 0 1 -7.66,11.75 c -2.83,2.4 -6.48,4.28 -10.11,3.61 -4.91,-0.91 -7.86,-6 -9.2,-10.87 -1.34,-4.87 -1.82,-10.1 -4.72,-14.18 -2.37,-3.34 -6,-5.44 -9.36,-7.82 -3.36,-2.38 -6.56,-5.45 -7.28,-9.49 -0.32,-1.76 -0.12,-3.57 -0.31,-5.35 a 12.65,12.65 0 0 0 -7.82,-10.27 c -2.51,-1 -5.61,-1.33 -7,-3.63 3.66,-2.06 6.08,-5.87 7.36,-9.88 1.28,-4.01 1.54,-8.27 1.79,-12.47 l 0.84,-14.05 c 0.37,-6.28 0.54,-12.5 3.31,-18.14 1.23,-2.53 2.77,-4.89 4.06,-7.38 a 83.26,83.26 0 0 0 4.35,-10.83 c 2,-5.76 4,-11.52 5.8,-17.35 a 34.58,34.58 0 0 1 3.18,-8.08 c 1.42,-2.44 3.64,-5.63 6.48,-6.16 z"
       inkscape:connector-curvature="0"
       style="fill:#ee794b" />
    <path
       id="path84"
       transform="translate(-79.34,-161.25)"
       d="m 765.86,521.75 3.72,0.13 0.79,-5.61 a 11.73,11.73 0 0 1 0.78,-3.28 20.63,20.63 0 0 1 2.14,-3.13 c 3.66,-5.17 3.39,-12 4.3,-18.31 1.21,-8.38 4.71,-16.22 8.17,-23.93 L 793,451.53 a 17.6,17.6 0 0 0 2,-8.88 c 0.07,-2.49 0.8,-11.53 0.87,-14 0,-0.92 -2,-0.41 -2.45,-1.23 -0.9,-1.79 -2.14,3.06 -3.83,4.12 -1.69,1.06 -2.63,3 -3.34,4.86 -1.56,4.05 -2.51,8.31 -4,12.4 -1.49,4.09 -3.47,8.11 -6.74,11 -1.48,1.3 -3.18,2.32 -4.58,3.71 -4.49,4.44 -4.93,11.45 -5.09,17.78 -0.08,3.71 -0.84,40.46 0.02,40.46 z"
       inkscape:connector-curvature="0"
       style="fill:#2f2e41" />
    <path
       id="path86"
       transform="translate(-79.34,-161.25)"
       d="m 819.38,423.76 c -3.61,1.42 -5.59,5.34 -6.6,9.1 -1.01,3.76 -1.43,7.78 -3.37,11.15 -4.54,7.89 -16.1,10.19 -19.29,18.72 -1,2.79 -1,5.85 -1.29,8.82 -0.58,6.11 -2.59,12 -3.18,18.12 a 79.77,79.77 0 0 0 0.33,14.24 l 4,48.19 c 0.59,7 0.57,14.43 -1.21,21.19 4.09,0.79 8.35,-0.27 12.14,-2 3.79,-1.73 7.26,-4.11 10.91,-6.12 6.28,-3.47 13.21,-5.92 18.71,-10.54 a 10.79,10.79 0 0 0 2.52,-2.79 c 1.1,-1.9 1.2,-4.21 1.72,-6.35 a 34.62,34.62 0 0 1 1.81,-5 148.83,148.83 0 0 0 5.26,-14.86 80.83,80.83 0 0 0 2.41,-10.2 c 0.44,-2.74 0.68,-5.52 0.92,-8.29 a 49.78,49.78 0 0 1 2.56,-12.74 102.24,102.24 0 0 0 5.91,-30.52 15.67,15.67 0 0 0 -0.31,-4.49 24.87,24.87 0 0 0 -2.44,-5.1 c -1.68,-3.16 -2.69,-6.64 -4.27,-9.86 -3.58,-7.25 -9.91,-12.76 -16.53,-17.37 -3.22,-2.25 -7.02,-4.74 -10.71,-3.3 z"
       inkscape:connector-curvature="0"
       style="fill:#2f2e41" />
    <path
       id="path88"
       transform="translate(-79.34,-161.25)"
       d="m 734.91,502.38 a 29.06,29.06 0 0 1 -7.69,-5.85 c -1,-1.18 -1.84,-2.51 -2.87,-3.67 a 18.84,18.84 0 0 0 -9.68,-5.52 47.34,47.34 0 0 0 -11.21,-1.09 20.57,20.57 0 0 0 -7.46,0.9 7.49,7.49 0 0 0 -4.94,5.31 c -0.55,3 1.41,5.91 3.76,7.84 a 18.14,18.14 0 0 0 7.52,3.65 61.63,61.63 0 0 0 6.79,0.79 c 13.38,1.4 25.32,8.68 37,15.31 q 15.45,8.75 31.49,16.34 a 63.78,63.78 0 0 0 0.53,-9.67 c -0.06,-2.41 -0.18,-6.09 -2.46,-7.51 -2.65,-1.65 -7,-2 -10,-3 a 161.11,161.11 0 0 1 -20.15,-8.15 q -5.41,-2.65 -10.63,-5.68 z"
       inkscape:connector-curvature="0"
       style="fill:#fbbebe" />
    <ellipse
       id="ellipse90"
       transform="rotate(-75.27,649.79242,374.21193)"
       ry="23.84"
       rx="23.969999"
       cy="403.38"
       cx="794.03003"
       style="fill:#fbbebe" />
    <path
       id="path92"
       transform="translate(-79.34,-161.25)"
       d="m 826.2,450.94 c -2.13,2.48 -3.2,5.68 -4.63,8.62 -2.94,6.06 -7.56,11.26 -9.87,17.6 -2.44,6.68 -2.36,14.62 -7.14,19.87 -0.83,0.91 -1.83,1.79 -2.07,3 a 16,16 0 0 1 -0.25,2.19 c -0.68,1.9 -3.8,2 -4.38,3.94 -0.17,0.57 -0.08,1.19 -0.29,1.75 -0.48,1.25 -2.13,1.44 -3.24,2.2 -2.32,1.57 -1.85,5.21 -3.5,7.48 a 6.27,6.27 0 0 1 -6,2.08 21.32,21.32 0 0 1 -6.18,-2.31 5.69,5.69 0 0 0 -2.22,-0.69 4.67,4.67 0 0 0 -2.57,0.87 c -4.4,2.8 -6.47,8.35 -6.44,13.59 0.03,5.24 1.83,10.28 3.67,15.18 a 6.59,6.59 0 0 0 1.22,2.26 c 1.46,1.54 4,1.3 5.94,0.44 1.94,-0.86 3.7,-2.21 5.78,-2.59 3.69,-0.67 7.3,1.87 11,1.66 2.74,-0.16 5.17,-1.75 7.44,-3.29 3.64,-2.46 7.34,-5 10,-8.48 1.64,-2.14 2.84,-4.57 4.27,-6.86 a 79.39,79.39 0 0 1 6,-8 l 13.74,-16.82 a 36.3,36.3 0 0 0 3.7,-5.11 35.86,35.86 0 0 0 2.88,-7.68 c 1.31,-4.49 2.63,-9 2.85,-13.69 a 54,54 0 0 0 -1,-11.47 39.79,39.79 0 0 0 -3,-10.92 c -2.83,-6.24 -10.1,-11.37 -15.71,-4.82 z"
       inkscape:connector-curvature="0"
       style="fill:#2f2e41" />
    <path
       id="path94"
       transform="translate(-79.34,-161.25)"
       d="m 867.76,440.24 a 26.83,26.83 0 0 0 -5.12,-23.9 c 3.65,-15.57 -4.3,-31.16 -18.3,-36.93 0.5,-14.6 -8.75,-28 -23,-31.76 -14.81,-3.89 -30,3.93 -36.39,17.83 -9,-4.67 -18.52,-4.17 -21.66,1.32 -3.28,5.74 1.65,14.77 11,20.16 a 29.33,29.33 0 0 0 9.53,3.53 31,31 0 0 0 17.25,18.26 31.78,31.78 0 0 0 16.4,29.15 26.56,26.56 0 0 0 4.43,11.43 20,20 0 0 0 -0.7,2.19 c -2.94,11.15 3.42,22.49 14.19,25.32 10.77,2.83 21.89,-3.91 24.82,-15.06 a 21.36,21.36 0 0 0 0.4,-9.11 27.1,27.1 0 0 0 7.15,-12.43 z"
       inkscape:connector-curvature="0"
       style="fill:#3f3d56" />
    <path
       id="path96"
       transform="translate(-79.34,-161.25)"
       d="m 769.46,369.7 c 3.14,-5.49 12.65,-6 21.66,-1.32 6.37,-13.9 21.58,-21.73 36.39,-17.83 0.67,0.17 1.33,0.38 2,0.6 a 30.21,30.21 0 0 0 -8.16,-3.5 c -14.81,-3.89 -30,3.93 -36.39,17.83 -9,-4.67 -18.52,-4.17 -21.66,1.32 -3.28,5.74 1.65,14.77 11,20.16 a 31.31,31.31 0 0 0 5.52,2.5 C 770.88,384 766.26,375.3 769.46,369.7 Z"
       inkscape:connector-curvature="0"
       style="opacity:0.1" />
    <path
       id="path98"
       transform="translate(-79.34,-161.25)"
       d="m 827.38,454.42 a 20,20 0 0 1 0.7,-2.19 26.6,26.6 0 0 1 -4.43,-11.44 31.76,31.76 0 0 1 -16.4,-29.14 31,31 0 0 1 -17.25,-18.26 27.58,27.58 0 0 1 -5.71,-1.67 30.89,30.89 0 0 0 16.77,17 31.78,31.78 0 0 0 16.4,29.15 26.56,26.56 0 0 0 4.43,11.43 20,20 0 0 0 -0.7,2.19 c -2.93,11.11 3.38,22.41 14.09,25.29 a 20.84,20.84 0 0 1 -7.9,-22.36 z"
       inkscape:connector-curvature="0"
       style="opacity:0.1" />
    <ellipse
       id="ellipse100"
       transform="rotate(-37.22,522.21665,444.92624)"
       ry="4.9099998"
       rx="3.6700001"
       cy="407.73001"
       cx="801.34003"
       style="fill:#fbbebe" />
    <circle
       id="circle102"
       r="16.290001"
       cy="23.049999"
       cx="431.79999"
       style="fill:#3f3d56" />
    <ellipse
       id="ellipse104"
       ry="59.200001"
       rx="45.689999"
       cy="59.200001"
       cx="467.14999"
       style="fill:#3f3d56" />
    <path
       id="path106"
       transform="translate(-79.34,-161.25)"
       d="m 546.49,261.77 c -22.89,0 -41.85,-21.81 -45.18,-50.26 a 77.1,77.1 0 0 0 -0.52,8.94 c 0,32.69 20.46,59.2 45.7,59.2 25.24,0 45.69,-26.51 45.69,-59.2 a 77.1,77.1 0 0 0 -0.52,-8.94 c -3.32,28.49 -22.28,50.26 -45.17,50.26 z"
       inkscape:connector-curvature="0"
       style="opacity:0.1" />
    <path
       id="path108"
       transform="translate(-79.34,-161.25)"
       d="m 643.85,393.83 c -1,4 -5.21,7.26 -9.89,9.51 -9.86,4.75 -22,6.16 -33.79,6.64 a 56.68,56.68 0 0 1 -9,-0.17 c -6.17,-0.73 -11.89,-3.36 -15.46,-7.11 a 2.85,2.85 0 0 1 -1,-1.62 2.88,2.88 0 0 1 1,-2 C 582,392.22 592.48,388 603,385 c 8,-2.31 21.94,-8.29 30.67,-7.48 8.48,0.73 11.42,11.21 10.18,16.31 z"
       inkscape:connector-curvature="0"
       style="fill:#3f3d56" />
    <path
       id="path110"
       transform="translate(-79.34,-161.25)"
       d="m 643.85,393.83 c -1,4 -5.21,7.26 -9.89,9.51 -9.86,4.75 -22,6.16 -33.79,6.64 a 56.68,56.68 0 0 1 -9,-0.17 c -6.17,-0.73 -11.89,-3.36 -15.46,-7.11 a 2.85,2.85 0 0 1 -1,-1.62 2.88,2.88 0 0 1 1,-2 C 582,392.22 592.48,388 603,385 c 8,-2.31 21.94,-8.29 30.67,-7.48 8.48,0.73 11.42,11.21 10.18,16.31 z"
       inkscape:connector-curvature="0"
       style="opacity:0.1" />
    <path
       id="path112"
       transform="translate(-79.34,-161.25)"
       d="m 518.59,363.69 a 24.94,24.94 0 0 0 -1.51,19 33.23,33.23 0 0 0 11.15,15.78 c 12.77,10.25 30.29,11.66 46.62,11.53 a 360.64,360.64 0 0 0 42.82,-2.94 c 4.73,-0.61 9.51,-1.33 13.89,-3.22 5.33,-2.31 10,-6.54 11.91,-12 1.91,-5.46 0.56,-12.22 -4,-15.88 -4,-3.22 -9.43,-3.66 -14.52,-4 l -29.15,-1.75 c 2.88,-2.92 6.71,-4.57 10.22,-6.68 4.65,-2.82 7.74,-7.54 11.13,-11.79 5,-6.36 11,-11.92 17,-17.45 1,5.44 4.39,9.91 8.44,13.67 4.05,3.76 8.72,6.78 12.94,10.35 10.2,8.66 17.54,20.42 28.27,28.42 a 55.4,55.4 0 0 0 20.27,-10.12 l -4.17,-7.55 a 5,5 0 0 0 -1.57,-2 c -1.19,-0.72 -2.71,-0.35 -4.08,-0.55 -3.66,-0.55 -5.26,-4.78 -6.7,-8.19 -3.94,-9.38 -11.5,-16.65 -18,-24.51 A 122.82,122.82 0 0 1 657,315.24 c -2.17,-3.91 -4.15,-8 -7.1,-11.37 -2.95,-3.37 -7.06,-6 -11.54,-6 -4,0 -7.6,2 -11,4 a 291.53,291.53 0 0 0 -29.84,20.33 c -5,3.86 -9.93,7.95 -15.77,10.32 -2.46,1 -5,1.68 -7.41,2.89 -4.13,2.13 -7.27,5.73 -10.65,8.92 -12.04,11.39 -28.53,18.77 -45.1,19.36 z"
       inkscape:connector-curvature="0"
       style="fill:#605d82" />
    <path
       id="path114"
       transform="translate(-79.34,-161.25)"
       d="m 579.55,282.59 a 29.77,29.77 0 0 1 -2.19,10.15 12.65,12.65 0 0 1 -7.28,7 15.61,15.61 0 0 1 -7.1,0.23 13.72,13.72 0 0 1 -5.79,-2 c -2.73,-1.88 -4.09,-5.23 -4.59,-8.51 -0.5,-3.28 -0.27,-6.63 -0.59,-9.93 a 54.53,54.53 0 0 0 -1.52,-7.9 c -0.21,-0.86 -0.43,-1.72 -0.65,-2.58 -0.22,-0.86 -0.41,-1.72 -0.6,-2.58 -0.19,-0.86 -0.34,-1.61 -0.48,-2.43 -0.14,-0.82 -0.22,-1.38 -0.29,-2.07 a 23.39,23.39 0 0 0 -1,-6.08 18.24,18.24 0 0 0 -2.13,-3.6 c -0.36,-0.52 -0.71,-1 -1,-1.57 a 7.44,7.44 0 0 1 -1.23,-4.73 4,4 0 0 1 0.19,-0.76 2.33,2.33 0 0 1 0.11,-0.28 2.28,2.28 0 0 0 1.55,-1.45 4.33,4.33 0 0 0 -0.19,-2.25 14,14 0 0 0 -1.21,-2.89 c -0.33,-0.6 -1.46,-1.69 -1.47,-2.38 0,-1.39 2.7,-2.51 3.8,-3.06 a 21.15,21.15 0 0 1 10.86,-2.2 c 2.4,0.16 5,0.9 6.33,2.92 1.2,1.81 1,4.16 1.55,6.27 a 1.74,1.74 0 0 0 0.37,0.84 1.7,1.7 0 0 0 0.94,0.43 5.6,5.6 0 0 0 1.78,0.07 v 0 a 2.54,2.54 0 0 0 0.47,-0.07 6.3,6.3 0 0 0 2.56,-1.1 c 0.5,-0.14 1,-0.24 1.49,-0.33 h 0.06 c 2,6.28 2.25,13 3.88,19.42 0.81,3.18 2,6.32 2.13,9.6 0,0.14 0,0.29 0,0.43 0,1.06 -0.06,2.12 0,3.17 a 9.38,9.38 0 0 0 0.16,1.4 21.36,21.36 0 0 0 0.66,2.2 v 0 c 0.07,0.23 0.14,0.46 0.2,0.7 a 4.7,4.7 0 0 1 0.12,0.51 v 0 a 18.87,18.87 0 0 1 0.1,5.41 z"
       inkscape:connector-curvature="0"
       style="fill:#fbbebe" />
    <circle
       id="circle116"
       r="23.440001"
       cy="56.82"
       cx="472.32999"
       style="fill:#fbbebe" />
    <path
       id="path118"
       transform="translate(-79.34,-161.25)"
       d="M 700.5,345.79 A 38.47,38.47 0 0 0 693.89,328 l 1.83,10.85 a 4.07,4.07 0 0 1 -4.25,-1.31 13,13 0 0 1 -2.23,-4.14 85,85 0 0 0 -10.37,-18.6 c -14.92,-1.25 -29.68,-7.43 -42.8,-14.65 -13.12,-7.22 -25.41,-15.85 -38.37,-23.36 a 56.27,56.27 0 0 0 -7,-3.58 c -4.05,-1.62 -8.6,-2.46 -12.44,-4.37 l -0.77,-0.41 a 15.48,15.48 0 0 1 -2.46,-1.64 13.36,13.36 0 0 1 -1.17,-1.09 25.74,25.74 0 0 1 -4.5,-7.51 c -2.06,-4.56 -2.8,-10.07 -4.85,-14.63 a 14.49,14.49 0 0 1 3.15,-2.23 v 0 l 0.5,-0.25 a 15.31,15.31 0 0 1 2.53,-0.92 c 0.5,-0.14 1,-0.24 1.49,-0.33 h 0.06 a 14.71,14.71 0 0 1 6.94,0.55 c 3.26,1.11 6,3.31 8.76,5.4 4.35,3.29 8.87,6.39 12.82,10.16 2.26,2.17 4.33,4.55 6.76,6.52 a 53.62,53.62 0 0 0 6.39,4.24 l 39.54,23.55 c 4.46,2.65 8.93,5.31 13.29,8.13 6.63,4.27 13,8.9 19.4,13.53 l 11.29,8.18 a 12.38,12.38 0 0 1 3.2,3 10.74,10.74 0 0 1 1.41,4.33 39.62,39.62 0 0 1 -1.54,18.37 z"
       inkscape:connector-curvature="0"
       style="fill:#fbbebe" />
    <path
       id="path120"
       transform="translate(-79.34,-161.25)"
       d="m 585.37,300.22 c -1.59,7.09 -8.75,11.38 -12.5,17.61 -4.66,7.73 -2.76,16.72 -1,25.58 l -9.59,8.26 c -1.76,1.51 -3.53,3 -5.42,4.37 a 72.89,72.89 0 0 1 -8.67,5 l -8.48,4.36 a 40.66,40.66 0 0 1 -8.31,3.52 c -5.58,1.43 -11.5,0.43 -17,-1.22 a 7.58,7.58 0 0 1 -1.86,-0.76 3.05,3.05 0 0 1 -0.88,-0.8 4.89,4.89 0 0 1 -0.56,-3.21 c 0.56,-9.28 2.83,-18.37 5.09,-27.39 a 106.67,106.67 0 0 1 4.81,-15.9 107.16,107.16 0 0 1 6.83,-12.82 c 3,-5.07 6,-10.18 10,-14.53 1.71,-1.88 3.62,-3.66 4.64,-6 1.41,-3.22 0.86,-6.91 1.15,-10.41 a 21.59,21.59 0 0 1 2.06,-7.59 v 0 a 21.76,21.76 0 0 1 2.2,-3.64 c 0.39,0.9 0.77,1.8 1.16,2.69 l 0.75,1.76 c 0.33,0.75 0.65,1.51 1,2.26 q 1.4,3.22 2.78,6.45 a 27,27 0 0 0 4.21,7.51 c 1.91,2.16 4.72,3.73 7.58,3.42 a 9.18,9.18 0 0 0 6.46,-4.5 26.56,26.56 0 0 0 2.87,-7.59 24.16,24.16 0 0 0 0.32,-9.89 c -1,-6.33 -3.65,-12.79 -5.6,-18.67 a 18.83,18.83 0 0 1 -1.36,-6.15 3.42,3.42 0 0 1 0.07,-0.71 v -0.18 a 15.31,15.31 0 0 1 2.53,-0.92 c 0.5,-0.14 1,-0.24 1.49,-0.33 q 2.58,14 5.17,27.94 c 0,0.22 0.09,0.44 0.13,0.66 0.24,1.34 0.49,2.67 0.77,4 0.28,1.33 0.52,2.41 0.82,3.6 v 0 c 0.1,0.4 0.21,0.81 0.32,1.21 v 0 c 0.31,1.1 0.65,2.18 1,3.26 2.44,6.53 6.51,13.04 5.02,19.75 z"
       inkscape:connector-curvature="0"
       style="fill:#ee794b" />
    <path
       id="path122"
       transform="translate(-79.34,-161.25)"
       d="m 680.51,399.89 a 8.14,8.14 0 0 0 0.77,4 c 1.46,2.68 5,3.29 8,3.54 a 237.62,237.62 0 0 0 53.37,-1.62 6.25,6.25 0 0 0 2.72,-0.85 c 2.51,-1.76 1,-6.05 -1.78,-7.43 -2.78,-1.38 -6,-1 -9,-1.63 a 28.61,28.61 0 0 1 -8.44,-3.66 q -9.15,-5.26 -18,-11 c -3.53,-2.27 -7.7,-4.69 -11.67,-3.34 -10.79,3.64 -16.05,10.38 -15.97,21.99 z"
       inkscape:connector-curvature="0"
       style="fill:#2f2e41" />
    <path
       id="path124"
       transform="translate(-79.34,-161.25)"
       d="m 549.33,266 v 0 l -0.09,0.49 -0.15,0.82 c -0.49,2.52 -1.1,5 -1.79,7.53 -1.91,6.89 -4.46,13.68 -7,20.36 L 519.89,349 c -1.72,4.52 -3.43,9 -5.38,13.46 -0.65,1.47 -1.32,3 -2,4.46 -2.39,5.37 -4.69,10.92 -5.45,16.65 -0.5,3.79 -1,7.66 -0.25,11.41 0.75,3.75 3,7.42 6.61,8.8 1.74,0.68 4.23,1.59 3.75,3.4 -0.25,1 -1.38,1.48 -2.4,1.64 a 9.19,9.19 0 0 1 -7.53,-2.17 c -1.9,-1.68 -3.37,-4.31 -5.9,-4.59 -1.75,-0.19 -3.36,0.86 -5,1.59 -6.55,3 -14.17,0.9 -21.05,-1.23 0.54,-2.78 3.34,-4.62 6.11,-5.17 2.77,-0.55 5.65,-0.17 8.49,-0.24 a 4.42,4.42 0 0 0 2.58,-0.67 4.75,4.75 0 0 0 1.43,-2.34 99.75,99.75 0 0 0 4.05,-16.6 c 0.92,-5.9 1.3,-11.88 2.6,-17.7 1,-4.54 2.58,-8.94 3.92,-13.4 a 281.37,281.37 0 0 0 6.39,-27.88 98.33,98.33 0 0 0 1.8,-11.82 c 0.23,-3.3 0.12,-6.62 0.44,-9.9 a 76.76,76.76 0 0 1 2.66,-12.62 c 1.22,-4.51 2.43,-9 3.65,-13.5 1.8,-6.66 3.73,-13.57 8.29,-18.74 a 17.61,17.61 0 0 1 12.66,-6.05 12.11,12.11 0 0 1 2.69,0.29 l 0.44,0.11 a 10.6,10.6 0 0 1 2.75,1.14 c 1.41,-0.9 2.12,-0.58 3.06,0.79 a 8.87,8.87 0 0 1 1.11,4.8 66.53,66.53 0 0 1 -1.08,13.08 z"
       inkscape:connector-curvature="0"
       style="fill:#fbbebe" />
    <path
       id="path126"
       transform="translate(-79.34,-161.25)"
       d="m 550.87,271.31 -0.06,0.06 -0.32,0.32 -3.19,3.19 -1.57,-6.58 -5.37,-22.54 a 12.11,12.11 0 0 1 2.69,0.29 4,4 0 0 1 0.19,-0.76 l 0.25,0.87 1.82,6.19 3.45,11.75 0.57,1.94 v 0 z"
       inkscape:connector-curvature="0"
       style="fill:#ee794b" />
    <rect
       id="rect128"
       rx="12"
       height="31.790001"
       width="50.860001"
       y="22.25"
       x="450.57999"
       style="fill:#3f3d56" />
    <circle
       id="circle130"
       r="16.290001"
       cy="23.049999"
       cx="504.41"
       style="fill:#3f3d56" />
    <path
       id="path132"
       transform="translate(-79.34,-161.25)"
       d="m 583.36,168 h -0.6 a 16.29,16.29 0 0 1 0,32.55 h 0.6 a 16.29,16.29 0 0 0 0,-32.58 z"
       inkscape:connector-curvature="0"
       style="opacity:0.1" />
    <path
       id="path134"
       transform="translate(-79.34,-161.25)"
       d="m 511.14,168 h 0.6 a 16.29,16.29 0 0 0 0,32.55 h -0.6 a 16.29,16.29 0 1 1 0,-32.58 z"
       inkscape:connector-curvature="0"
       style="opacity:0.1" />
    <path
       id="path136"
       transform="translate(-79.34,-161.25)"
       d="M 581.28,212.1 H 540 a 4.77,4.77 0 0 1 -4.77,-4.76 v 3.17 a 4.78,4.78 0 0 0 4.77,4.77 h 41.32 a 4.78,4.78 0 0 0 4.77,-4.77 v -3.17 a 4.78,4.78 0 0 1 -4.81,4.76 z"
       inkscape:connector-curvature="0"
       style="opacity:0.1" />
    <path
       id="path138"
       transform="translate(-79.34,-161.25)"
       d="m 721.32,378.85 c 0,0 2.58,0.45 3,-1.64 0.21,-1 -0.5,-7.42 -1.31,-13.84 -0.39,-3.16 -0.81,-6.31 -1.15,-8.83 -0.41,-3.09 -0.71,-5.22 -0.71,-5.22 l -0.47,-1.56 -2.78,-9.34 -2.62,-8.8 -1.93,-3.46 -13.89,6.76 -8.64,14.93 2.68,1.69 0.47,0.3 4.93,5.16 13.82,14.5 6.22,6.53 0.73,0.76 z"
       inkscape:connector-curvature="0"
       style="fill:#ffe09c" />
    <path
       id="path140"
       transform="translate(-79.34,-161.25)"
       d="m 710.4,320.22 c 0,0 -15.22,7.14 -18.88,14.9 0,0 -3.42,6.53 -3.85,10 0,0 -1,3.17 5.31,3.95 0,0 2.87,-11.65 11.48,-16.71 l 8.62,-5.05 z"
       inkscape:connector-curvature="0"
       style="fill:#e7c4c3" />
    <ellipse
       id="ellipse142"
       transform="matrix(0.26,-0.97,0.97,0.26,118.32,773.54)"
       ry="4.3800001"
       rx="5.1700001"
       cy="338.78"
       cx="707.08002"
       style="fill:#ff7f8e" />
    <ellipse
       id="ellipse144"
       transform="rotate(-75.08,563.8896,326.12994)"
       ry="4.3800001"
       rx="5.1700001"
       cy="355.13"
       cx="708.48999"
       style="fill:#ff7f8e" />
    <path
       id="path146"
       transform="translate(-79.34,-161.25)"
       d="m 698.9,355 a 5.42,5.42 0 0 0 3.23,-3.75 c 0.74,-2.76 -0.56,-5.51 -2.9,-6.13 -2.34,-0.62 -4.83,1.11 -5.56,3.87 a 3.9,3.9 0 0 0 -0.13,0.57 l 0.47,0.3 z"
       inkscape:connector-curvature="0"
       style="fill:#ff7f8e" />
    <path
       id="path148"
       transform="translate(-79.34,-161.25)"
       d="m 717.49,348.33 a 4,4 0 0 0 3.23,-0.57 l -2.78,-9.34 a 5.38,5.38 0 0 0 -3.36,3.79 c -0.73,2.79 0.57,5.5 2.91,6.12 z"
       inkscape:connector-curvature="0"
       style="fill:#ff7f8e" />
    <path
       id="path150"
       transform="translate(-79.34,-161.25)"
       d="m 719.1,364.49 a 4.22,4.22 0 0 0 3.95,-1.12 c -0.39,-3.16 -0.81,-6.31 -1.15,-8.83 h -0.13 c -2.34,-0.63 -4.83,1.11 -5.57,3.87 -0.74,2.76 0.57,5.46 2.9,6.08 z"
       inkscape:connector-curvature="0"
       style="fill:#ff7f8e" />
    <path
       id="path152"
       transform="translate(-79.34,-161.25)"
       d="m 718.94,376 a 6.12,6.12 0 0 0 0.65,-1.55 c 0.74,-2.76 -0.56,-5.5 -2.9,-6.12 a 4.22,4.22 0 0 0 -4,1.14 z"
       inkscape:connector-curvature="0"
       style="fill:#ff7f8e" />
    <path
       id="path154"
       transform="translate(-79.34,-161.25)"
       d="m 712.07,334.18 1.6,0.43 a 9.16,9.16 0 0 0 -1.09,3.75 2.46,2.46 0 0 0 0,0.26 c 0.21,1.65 -1.6,-0.43 -1.6,-0.43 0,0 0.31,-3.39 1.09,-4.01 z"
       inkscape:connector-curvature="0"
       style="fill:#94cc79" />
    <path
       id="path156"
       transform="translate(-79.34,-161.25)"
       d="m 704.78,344.5 1.61,0.43 a 8.93,8.93 0 0 0 -1.09,3.74 2.28,2.28 0 0 0 0,0.26 c 0.21,1.65 -1.6,-0.43 -1.6,-0.43 0,0 0.3,-3.39 1.08,-4 z"
       inkscape:connector-curvature="0"
       style="fill:#94cc79" />
    <path
       id="path158"
       transform="translate(-79.34,-161.25)"
       d="m 709.76,347.91 1.6,0.42 a 9.16,9.16 0 0 0 -1.09,3.75 2.28,2.28 0 0 0 0,0.26 c 0.22,1.65 -1.6,-0.43 -1.6,-0.43 0,0 0.33,-3.39 1.09,-4 z"
       inkscape:connector-curvature="0"
       style="fill:#94cc79" />
    <path
       id="path160"
       transform="translate(-79.34,-161.25)"
       d="m 716.16,356.52 1.61,0.42 a 9,9 0 0 0 -1.09,3.75 2.28,2.28 0 0 0 0,0.26 c 0.21,1.65 -1.6,-0.43 -1.6,-0.43 0,0 0.31,-3.39 1.08,-4 z"
       inkscape:connector-curvature="0"
       style="fill:#94cc79" />
    <path
       id="path162"
       transform="translate(-79.34,-161.25)"
       d="m 720.15,370.69 1.6,0.43 a 9.15,9.15 0 0 0 -1.09,3.74 2.11,2.11 0 0 0 0,0.26 c 0.22,1.65 -1.6,-0.42 -1.6,-0.42 0,0 0.31,-3.4 1.09,-4.01 z"
       inkscape:connector-curvature="0"
       style="fill:#94cc79" />
    <path
       id="path164"
       transform="translate(-79.34,-161.25)"
       d="m 711.47,360.78 1.6,0.43 A 9,9 0 0 0 712,365 a 2.11,2.11 0 0 0 0,0.26 c 0.21,1.65 -1.6,-0.42 -1.6,-0.42 0,0 0.3,-3.45 1.07,-4.06 z"
       inkscape:connector-curvature="0"
       style="fill:#94cc79" />
    <path
       id="path166"
       transform="translate(-79.34,-161.25)"
       d="m 715.35,321.54 c 0,0 -2.29,-5.19 -5,-1.32 a 18.36,18.36 0 0 0 3,8.8 c 0,0 8.29,22.55 7.6,26 0,0 3.27,21.78 2.46,23 0,0 0.9,1.54 1.54,-4.25 0.64,-5.79 -2.17,-22.8 -2.17,-22.8 l -4.11,-17.68 -2.75,-6 z"
       inkscape:connector-curvature="0"
       style="fill:#e7c4c3" />
    <path
       id="path168"
       transform="translate(-79.34,-161.25)"
       d="m 715.35,321.54 c 0,0 -2.29,-5.19 -5,-1.32 a 18.36,18.36 0 0 0 3,8.8 c 0,0 8.29,22.55 7.6,26 0,0 3.27,21.78 2.46,23 0,0 0.9,1.54 1.54,-4.25 0.64,-5.79 -2.17,-22.8 -2.17,-22.8 l -4.11,-17.68 -2.75,-6 z"
       inkscape:connector-curvature="0"
       style="opacity:0.2;fill:#ffffff" />
    <path
       id="path170"
       transform="translate(-79.34,-161.25)"
       d="m 687.85,330.14 c 0,0 4.11,11.84 7.87,8.69 l -3,-15.47 z"
       inkscape:connector-curvature="0"
       style="fill:#fbbebe" />
    <path
       id="path172"
       transform="translate(-79.34,-161.25)"
       d="m 406.75,378.77 c 0,0 36.25,61.07 44.72,69.23 0,0 36.22,37.6 17.81,35 -1.35,-0.19 -27.86,-22.6 -29.41,-26.28 -1.55,-3.68 -51.67,-68.79 -51.67,-68.79 l 7.15,-6.58 z"
       inkscape:connector-curvature="0"
       style="fill:#a0616a" />
    <path
       id="path174"
       transform="translate(-79.34,-161.25)"
       d="m 406.75,378.77 c 0,0 36.25,61.07 44.72,69.23 0,0 36.22,37.6 17.81,35 -1.35,-0.19 -27.86,-22.6 -29.41,-26.28 -1.55,-3.68 -51.67,-68.79 -51.67,-68.79 l 7.15,-6.58 z"
       inkscape:connector-curvature="0"
       style="opacity:0.1" />
    <path
       id="path176"
       transform="translate(-79.34,-161.25)"
       d="m 439.9,578.22 c 0,0 -11.6,14.5 -6.76,20.3 4.84,5.8 28.95,16.89 36.73,16.43 8.22,-0.48 35.77,1 36.74,-11.6 0,0 1.93,-5.8 -23.2,-6.77 C 458.28,595.61 466,569.51 466,569.51 Z"
       inkscape:connector-curvature="0"
       style="fill:#2f2e41" />
    <path
       id="path178"
       transform="translate(-79.34,-161.25)"
       d="m 301.66,455.44 c 0,0 -11.6,39.63 23.2,46.4 l 37.7,-1.93 c 0,0 53.17,-10.64 67.68,-2.9 0,0 5.8,1 3.86,8.7 -1.94,7.7 2.9,59.94 2.9,59.94 v 17.4 c 0,0 32.87,0 36.74,-3.87 0,0 -2.9,-15.47 0,-28 2.9,-12.53 -4.83,-52.21 -4.83,-52.21 l -0.77,-23.81 a 16.62,16.62 0 0 0 -8.77,-14.32 13,13 0 0 0 -5.93,-1.51 c 0,0 -65.74,-10.63 -88.94,-8.7 -23.2,1.93 -62.84,4.81 -62.84,4.81 z"
       inkscape:connector-curvature="0"
       style="fill:#605d82" />
    <path
       id="path180"
       transform="translate(-79.34,-161.25)"
       d="m 366.43,328.79 c 0,0 17.4,20.3 19.33,27.07 1.93,6.77 23.24,24.14 23.24,24.14 0,0 -15.47,11.6 -12.57,17.4 2.9,5.8 -20.3,-19.33 -20.3,-19.33 L 349,338.46 Z"
       inkscape:connector-curvature="0"
       style="fill:#ee794b" />
    <path
       id="path182"
       transform="translate(-79.34,-161.25)"
       d="m 366.43,328.79 c 0,0 17.4,20.3 19.33,27.07 1.93,6.77 23.24,24.14 23.24,24.14 0,0 -15.47,11.6 -12.57,17.4 2.9,5.8 -20.3,-19.33 -20.3,-19.33 L 349,338.46 Z"
       inkscape:connector-curvature="0"
       style="opacity:0.1" />
    <path
       id="path184"
       transform="translate(-79.34,-161.25)"
       d="m 378,305.59 c 0,0 -8.7,28 -8.7,38.67 0,10.67 -36.74,-2.9 -35.77,-8.7 0.97,-5.8 21.27,-27.07 22.24,-35.77 0.97,-8.7 22.23,5.8 22.23,5.8 z"
       inkscape:connector-curvature="0"
       style="fill:#a0616a" />
    <path
       id="path186"
       transform="translate(-79.34,-161.25)"
       d="m 349,324.92 c 0,0 -33.84,-8.7 -38.67,40.61 -4.83,49.31 3.86,55.1 -10.64,85.07 -14.5,29.97 98.61,3.87 98.61,3.87 0,0 -5.8,-6.77 -24.17,-3.87 l -8.7,-26.1 c 0,0 -2.9,-11.6 13.54,-11.6 16.44,0 8.7,-33.84 8.7,-33.84 0,0 -8.7,-29 -13.54,-31.9 -4.84,-2.9 -13.5,-20.3 -25.13,-22.24 z"
       inkscape:connector-curvature="0"
       style="opacity:0.1" />
    <path
       id="path188"
       transform="translate(-79.34,-161.25)"
       d="m 349,323 c 0,0 -33.84,-8.7 -38.67,40.6 -4.83,49.3 3.86,55.11 -10.64,85.08 -14.5,29.97 98.61,3.87 98.61,3.87 0,0 -5.8,-6.77 -24.17,-3.87 l -8.7,-26.1 c 0,0 -2.87,-11.58 13.57,-11.58 16.44,0 8.7,-33.84 8.7,-33.84 0,0 -8.7,-29 -13.54,-31.9 C 369.32,342.36 360.63,324.92 349,323 Z"
       inkscape:connector-curvature="0"
       style="fill:#ee794b" />
    <circle
       id="circle190"
       r="31.9"
       cy="129.84"
       cx="289.98999"
       style="fill:#a0616a" />
    <polygon
       id="polygon192"
       points="285.68,284.19 283.83,293.18 364,341.1 438.59,271.6 349.67,240.63 "
       style="fill:#dadae5" />
    <polygon
       id="polygon194"
       points="347.1,228.27 436.21,257.03 473.66,150.61 371.67,152.85 "
       style="fill:none" />
    <polygon
       id="polygon196"
       points="353.49,233.24 436.21,257.03 471.52,156.69 378.44,159.04 "
       style="fill:#dadae5" />
    <polygon
       id="polygon198"
       points="378.55,159.75 471.63,157.4 473.77,151.32 371.78,153.56 "
       style="opacity:0.02999998" />
    <polygon
       id="polygon200"
       points="371.78,153.56 378.55,159.75 354.23,232.09 347.21,228.97 "
       style="opacity:0.02999998" />
    <polygon
       id="polygon202"
       points="378.44,159.04 471.52,156.69 473.66,150.61 371.67,152.85 "
       style="fill:#eff0f4" />
    <polygon
       id="polygon204"
       points="371.67,152.85 378.44,159.04 354.12,231.38 347.1,228.27 "
       style="fill:#eff0f4" />
    <polygon
       id="polygon206"
       points="382.02,162.53 475.11,160.18 473.66,150.61 371.67,152.85 "
       style="opacity:0.02999998" />
    <polygon
       id="polygon208"
       points="371.67,152.85 382.02,162.53 357.7,234.87 347.1,228.27 "
       style="opacity:0.02999998" />
    <polygon
       id="polygon210"
       points="349.52,243.68 438.99,274.74 436.38,258.09 347.26,229.33 "
       style="opacity:0.02999998" />
    <polygon
       id="polygon212"
       points="347.26,229.33 350.15,243.67 285.18,291.99 281.12,276.49 "
       style="opacity:0.02999998" />
    <polygon
       id="polygon214"
       points="349.04,240.64 438.51,271.7 436.21,257.03 347.1,228.27 "
       style="fill:#eff0f4" />
    <polygon
       id="polygon216"
       points="347.1,228.27 349.67,240.63 284.7,288.95 280.95,275.42 "
       style="fill:#eff0f4" />
    <polygon
       id="polygon218"
       points="349.04,240.64 438.51,271.7 436.21,257.03 347.1,228.27 "
       style="opacity:0.02999998" />
    <polygon
       id="polygon220"
       points="347.1,228.27 349.67,240.63 284.7,288.95 280.95,275.42 "
       style="opacity:0.02999998" />
    <polygon
       id="polygon222"
       points="283.94,293.25 363.89,341.02 361.92,322.67 280.95,275.42 "
       style="fill:#cccad6" />
    <path
       id="path224"
       transform="translate(-79.34,-161.25)"
       d="m 396.72,433.85 c 0,0 -1.39,2.65 0.73,3.87 1,0.58 8.23,2 15.49,3.36 3.56,0.66 7.13,1.3 10,1.8 3.5,0.62 5.92,1 5.92,1 h 1.84 l 11.12,0.21 10.46,0.2 4.43,-0.91 -2.55,-17.38 -13.24,-14.55 -2.77,2.34 -0.47,0.4 -7.28,3.54 -20.54,10 -9.24,4.5 -1.08,0.53 z"
       inkscape:connector-curvature="0"
       style="fill:#ffe09c" />
    <path
       id="path226"
       transform="translate(-79.34,-161.25)"
       d="m 464.19,442.24 c 0,0 -2.49,-19 -9.67,-25.66 0,0 -5.9,-6 -9.53,-7.64 0,0 -3.09,-2.19 -6.13,4.41 0,0 11.67,7.14 14.19,18.25 l 2.51,11.11 z"
       inkscape:connector-curvature="0"
       style="fill:#e7c4c3" />
    <ellipse
       id="ellipse228"
       transform="rotate(-57.43,258.38113,424.03268)"
       ry="5.9000001"
       rx="5"
       cy="432.23001"
       cx="445.17001"
       style="fill:#ff7f8e" />
    <ellipse
       id="ellipse230"
       transform="rotate(-57.43,240.13465,419.91055)"
       ry="5.9000001"
       rx="5"
       cy="428.10999"
       cx="426.92999"
       style="fill:#ff7f8e" />
    <path
       id="path232"
       transform="translate(-79.34,-161.25)"
       d="m 430.4,417.74 a 6.15,6.15 0 0 0 3,4.81 c 2.74,1.75 6.17,1.29 7.65,-1 1.48,-2.29 0.47,-5.63 -2.28,-7.38 a 6.65,6.65 0 0 0 -0.58,-0.33 l -0.47,0.4 z"
       inkscape:connector-curvature="0"
       style="fill:#ff7f8e" />
    <path
       id="path234"
       transform="translate(-79.34,-161.25)"
       d="m 431.2,440.23 a 4.6,4.6 0 0 0 -0.51,3.71 l 11.12,0.21 a 6.1,6.1 0 0 0 -3,-5 c -2.7,-1.71 -6.13,-1.24 -7.61,1.08 z"
       inkscape:connector-curvature="0"
       style="fill:#ff7f8e" />
    <path
       id="path236"
       transform="translate(-79.34,-161.25)"
       d="m 413.08,436.4 a 4.78,4.78 0 0 0 -0.14,4.68 c 3.56,0.66 7.13,1.3 10,1.8 l 0.09,-0.13 c 1.48,-2.32 0.46,-5.63 -2.28,-7.38 -2.74,-1.75 -6.18,-1.29 -7.67,1.03 z"
       inkscape:connector-curvature="0"
       style="fill:#ff7f8e" />
    <path
       id="path238"
       transform="translate(-79.34,-161.25)"
       d="m 400.62,432.25 a 7.09,7.09 0 0 0 1.46,1.24 c 2.74,1.75 6.17,1.29 7.65,-1 a 4.77,4.77 0 0 0 0.13,-4.7 z"
       inkscape:connector-curvature="0"
       style="fill:#ff7f8e" />
    <path
       id="path240"
       transform="translate(-79.34,-161.25)"
       d="m 448.44,439.23 -1,1.59 a 10.31,10.31 0 0 0 -3.69,-2.47 l -0.29,-0.07 c -1.87,-0.34 1,-1.59 1,-1.59 0,0 3.59,1.49 3.98,2.54 z"
       inkscape:connector-curvature="0"
       style="fill:#94cc79" />
    <path
       id="path242"
       transform="translate(-79.34,-161.25)"
       d="m 439.75,427.75 -1,1.6 a 10.29,10.29 0 0 0 -3.69,-2.48 l -0.29,-0.07 c -1.86,-0.33 1,-1.59 1,-1.59 0,0 3.59,1.49 3.98,2.54 z"
       inkscape:connector-curvature="0"
       style="fill:#94cc79" />
    <path
       id="path244"
       transform="translate(-79.34,-161.25)"
       d="m 434.33,432 -1,1.59 a 10.31,10.31 0 0 0 -3.69,-2.47 l -0.29,-0.07 c -1.87,-0.34 1,-1.59 1,-1.59 0,0 3.58,1.47 3.98,2.54 z"
       inkscape:connector-curvature="0"
       style="fill:#94cc79" />
    <path
       id="path246"
       transform="translate(-79.34,-161.25)"
       d="m 422.76,436 -1,1.6 a 10.29,10.29 0 0 0 -3.69,-2.48 l -0.29,-0.07 c -1.87,-0.33 1,-1.59 1,-1.59 0,0 3.58,1.45 3.98,2.54 z"
       inkscape:connector-curvature="0"
       style="fill:#94cc79" />
    <path
       id="path248"
       transform="translate(-79.34,-161.25)"
       d="m 406,435.4 -1,1.6 a 10.36,10.36 0 0 0 -3.7,-2.48 l -0.29,-0.07 c -1.86,-0.33 1,-1.59 1,-1.59 0,0 3.58,1.48 3.99,2.54 z"
       inkscape:connector-curvature="0"
       style="fill:#94cc79" />
    <path
       id="path250"
       transform="translate(-79.34,-161.25)"
       d="m 419.75,429.4 -1,1.59 a 10.29,10.29 0 0 0 -3.69,-2.48 l -0.29,-0.07 c -1.87,-0.33 1,-1.59 1,-1.59 0,0 3.58,1.49 3.98,2.55 z"
       inkscape:connector-curvature="0"
       style="fill:#94cc79" />
    <path
       id="path252"
       transform="translate(-79.34,-161.25)"
       d="m 461,447.17 c 0,0 6.43,-0.7 3.15,-4.93 a 20.86,20.86 0 0 0 -10.58,0.18 c 0,0 -27.37,1.22 -30.92,-0.74 0,0 -24.8,-4 -25.8,-5.26 0,0 -2,0.44 4.08,3.14 6.08,2.7 25.53,5.52 25.53,5.52 l 20.63,1.64 7.42,-0.92 z"
       inkscape:connector-curvature="0"
       style="fill:#e7c4c3" />
    <path
       id="path254"
       transform="translate(-79.34,-161.25)"
       d="m 461,447.17 c 0,0 6.43,-0.7 3.15,-4.93 a 20.86,20.86 0 0 0 -10.58,0.18 c 0,0 -27.37,1.22 -30.92,-0.74 0,0 -24.8,-4 -25.8,-5.26 0,0 -2,0.44 4.08,3.14 6.08,2.7 25.53,5.52 25.53,5.52 l 20.63,1.64 7.42,-0.92 z"
       inkscape:connector-curvature="0"
       style="opacity:0.2;fill:#ffffff" />
    <path
       id="path256"
       transform="translate(-79.34,-161.25)"
       d="m 441.5,437.36 a 6.16,6.16 0 0 0 0.93,5.57 c 1.88,2.65 5.23,3.51 7.49,1.92 2.26,-1.59 2.55,-5 0.66,-7.7 -0.13,-0.18 -0.27,-0.36 -0.41,-0.53 l -0.6,0.2 z"
       inkscape:connector-curvature="0"
       style="fill:#ff7f8e" />
    <polygon
       id="polygon258"
       points="436.21,257.03 438.49,271.52 363.89,341.02 361.92,322.67 "
       style="fill:#cccad6" />
    <polygon
       id="polygon260"
       points="436.21,257.03 473.66,150.61 480.8,155.65 445.85,260.77 "
       style="fill:#cccad6" />
    <g
       id="g266"
       style="opacity:0.1">
      <path
         id="path262"
         transform="translate(-79.34,-161.25)"
         d="m 464.9,577.13 a 33.4,33.4 0 0 1 1.11,-7.62 l -0.49,0.17 a 34,34 0 0 0 -0.62,7.45 z"
         inkscape:connector-curvature="0"
         style="fill:#ffffff" />
      <path
         id="path264"
         transform="translate(-79.34,-161.25)"
         d="m 469.87,613 c -7.78,0.46 -31.9,-10.64 -36.73,-16.44 a 5.07,5.07 0 0 1 -1.12,-2.74 6.06,6.06 0 0 0 1.12,4.68 c 4.83,5.8 28.95,16.89 36.73,16.43 8.22,-0.48 35.77,1 36.74,-11.6 a 1.58,1.58 0 0 0 -0.13,-1 c -2.22,11.58 -28.6,10.22 -36.61,10.67 z"
         inkscape:connector-curvature="0"
         style="fill:#ffffff" />
    </g>
    <path
       id="path268"
       transform="translate(-79.34,-161.25)"
       d="m 498.12,378.38 c 0,0 1.72,-2 0.16,-3.44 -0.75,-0.7 -6.63,-3.38 -12.55,-6 -2.91,-1.28 -5.84,-2.54 -8.17,-3.54 l -4.85,-2.07 -1.57,-0.4 -9.45,-2.41 -8.89,-2.27 -4,-0.11 -1.34,15.39 8.39,15.08 2.82,-1.44 0.49,-0.25 6.93,-1.56 19.58,-4.36 8.79,-2 1,-0.23 z"
       inkscape:connector-curvature="0"
       style="fill:#ffe09c" />
    <path
       id="path270"
       transform="translate(-79.34,-161.25)"
       d="m 442.2,357.67 c 0,0 -1.69,16.72 3.1,23.85 0,0 3.84,6.28 6.6,8.44 0,0 2.2,2.48 6.13,-2.54 0,0 -8.54,-8.44 -8.45,-18.43 l 0.08,-10 z"
       inkscape:connector-curvature="0"
       style="fill:#e7c4c3" />
    <ellipse
       id="ellipse272"
       transform="rotate(-44.19,218.19148,387.15305)"
       ry="5.1700001"
       rx="4.3800001"
       cy="370.04001"
       cx="456.42999"
       style="fill:#ff7f8e" />
    <ellipse
       id="ellipse274"
       transform="rotate(-44.19,232.93821,394.33032)"
       ry="5.1700001"
       rx="4.3800001"
       cy="377.22"
       cx="471.17999"
       style="fill:#ff7f8e" />
    <path
       id="path276"
       transform="translate(-79.34,-161.25)"
       d="m 466.13,385.37 a 5.41,5.41 0 0 0 -1.56,-4.7 c -2,-2 -5,-2.34 -6.75,-0.65 -1.75,1.69 -1.52,4.71 0.47,6.76 a 5.25,5.25 0 0 0 0.42,0.4 l 0.49,-0.25 z"
       inkscape:connector-curvature="0"
       style="fill:#ff7f8e" />
    <path
       id="path278"
       transform="translate(-79.34,-161.25)"
       d="m 470,366 a 4,4 0 0 0 1.17,-3.07 l -9.45,-2.41 a 5.36,5.36 0 0 0 1.53,4.83 c 1.96,2.06 4.98,2.35 6.75,0.65 z"
       inkscape:connector-curvature="0"
       style="fill:#ff7f8e" />
    <path
       id="path280"
       transform="translate(-79.34,-161.25)"
       d="m 484.66,372.92 a 4.23,4.23 0 0 0 1.07,-4 c -2.91,-1.28 -5.84,-2.54 -8.17,-3.54 l -0.11,0.09 c -1.73,1.69 -1.52,4.72 0.47,6.77 1.99,2.05 5.01,2.37 6.74,0.68 z"
       inkscape:connector-curvature="0"
       style="fill:#ff7f8e" />
    <path
       id="path282"
       transform="translate(-79.34,-161.25)"
       d="m 494.46,379 a 5.71,5.71 0 0 0 -1,-1.35 c -2,-2.05 -5,-2.34 -6.74,-0.65 a 4.18,4.18 0 0 0 -1.06,4 z"
       inkscape:connector-curvature="0"
       style="fill:#ff7f8e" />
    <path
       id="path284"
       transform="translate(-79.34,-161.25)"
       d="m 455,363.4 1.19,-1.15 a 9.11,9.11 0 0 0 2.66,2.85 l 0.23,0.12 c 1.53,0.66 -1.19,1.15 -1.19,1.15 0,0 -2.72,-1.99 -2.89,-2.97 z"
       inkscape:connector-curvature="0"
       style="fill:#94cc79" />
    <path
       id="path286"
       transform="translate(-79.34,-161.25)"
       d="m 460.16,375 1.18,-1.16 a 9.1,9.1 0 0 0 2.66,2.86 l 0.23,0.11 c 1.53,0.67 -1.19,1.16 -1.19,1.16 0,0 -2.76,-2.05 -2.88,-2.97 z"
       inkscape:connector-curvature="0"
       style="fill:#94cc79" />
    <path
       id="path288"
       transform="translate(-79.34,-161.25)"
       d="m 465.63,372.43 1.19,-1.16 a 9.1,9.1 0 0 0 2.66,2.86 l 0.23,0.11 c 1.53,0.67 -1.19,1.16 -1.19,1.16 0,0 -2.76,-1.99 -2.89,-2.97 z"
       inkscape:connector-curvature="0"
       style="fill:#94cc79" />
    <path
       id="path290"
       transform="translate(-79.34,-161.25)"
       d="m 476.31,371.35 1.19,-1.16 a 9.16,9.16 0 0 0 2.65,2.86 l 0.24,0.12 c 1.52,0.66 -1.19,1.15 -1.19,1.15 0,0 -2.76,-1.99 -2.89,-2.97 z"
       inkscape:connector-curvature="0"
       style="fill:#94cc79" />
    <path
       id="path292"
       transform="translate(-79.34,-161.25)"
       d="m 490.52,375.21 1.19,-1.16 a 9,9 0 0 0 2.65,2.86 l 0.24,0.11 c 1.52,0.67 -1.19,1.16 -1.19,1.16 0,0 -2.76,-2 -2.89,-2.97 z"
       inkscape:connector-curvature="0"
       style="fill:#94cc79" />
    <path
       id="path294"
       transform="translate(-79.34,-161.25)"
       d="m 477.56,377.56 1.19,-1.15 a 9.11,9.11 0 0 0 2.66,2.85 1,1 0 0 0 0.23,0.12 c 1.53,0.66 -1.19,1.16 -1.19,1.16 0,0 -2.76,-2 -2.89,-2.98 z"
       inkscape:connector-curvature="0"
       style="fill:#94cc79" />
    <path
       id="path296"
       transform="translate(-79.34,-161.25)"
       d="m 445.88,354.09 c 0,0 -5.63,-0.69 -3.68,3.58 a 18.4,18.4 0 0 0 9.07,2 c 0,0 23.61,4.46 26.25,6.84 0,0 20.37,8.38 21,9.68 0,0 1.79,0 -2.85,-3.51 -4.64,-3.51 -20.67,-9.86 -20.67,-9.86 l -17.28,-5.55 -6.52,-0.71 z"
       inkscape:connector-curvature="0"
       style="fill:#e7c4c3" />
    <path
       id="path298"
       transform="translate(-79.34,-161.25)"
       d="m 445.88,354.09 c 0,0 -5.63,-0.69 -3.68,3.58 a 18.4,18.4 0 0 0 9.07,2 c 0,0 23.61,4.46 26.25,6.84 0,0 20.37,8.38 21,9.68 0,0 1.79,0 -2.85,-3.51 -4.64,-3.51 -20.67,-9.86 -20.67,-9.86 l -17.28,-5.55 -6.52,-0.71 z"
       inkscape:connector-curvature="0"
       style="opacity:0.2;fill:#ffffff" />
    <path
       id="path300"
       transform="translate(-79.34,-161.25)"
       d="m 417.09,377.38 a 29.06,29.06 0 0 0 7.69,-5.85 c 1,-1.18 1.84,-2.51 2.87,-3.67 a 18.84,18.84 0 0 1 9.68,-5.52 47.34,47.34 0 0 1 11.21,-1.09 20.57,20.57 0 0 1 7.46,0.9 7.49,7.49 0 0 1 4.94,5.31 c 0.55,3 -1.41,5.91 -3.76,7.84 a 18.14,18.14 0 0 1 -7.52,3.65 61.63,61.63 0 0 1 -6.79,0.79 c -13.38,1.4 -25.32,8.68 -37,15.31 -10.3,5.83 -16.14,5.56 -26.83,10.62 -0.42,-3.2 -5.26,-0.72 -5.19,-3.95 0.06,-2.41 0.18,-6.09 2.46,-7.51 2.65,-1.65 7,-2 10,-3 a 161.11,161.11 0 0 0 20.15,-8.15 q 5.41,-2.65 10.63,-5.68 z"
       inkscape:connector-curvature="0"
       style="fill:#a0616a" />
    <path
       id="path302"
       transform="translate(-79.34,-161.25)"
       d="m 328.73,368.43 51.27,46.4 c 0,0 9.67,-19.33 12.57,-19.33 2.9,0 -34.8,-57 -34.8,-57 0,0 -9.67,-11.6 -15.47,-5.8 -5.8,5.8 -23.24,1.89 -13.57,35.73 z"
       inkscape:connector-curvature="0"
       style="opacity:0.1" />
    <path
       id="path304"
       transform="translate(-79.34,-161.25)"
       d="M 327.76,366.5 379,412.9 c 0,0 9.67,-19.34 12.57,-19.34 2.9,0 -34.81,-57 -34.81,-57 0,0 -9.67,-11.61 -15.47,-5.81 -5.8,5.8 -23.2,1.91 -13.53,35.75 z"
       inkscape:connector-curvature="0"
       style="fill:#ee794b" />
    <path
       id="path306"
       transform="translate(-79.34,-161.25)"
       d="m 412.12,284.71 a 15.4,15.4 0 0 0 2.69,-4.2 c 4.42,-10 -2.59,-22.56 -14.56,-26 -6,-1.75 -12.72,-1.4 -18.71,-3.26 -4.82,-1.49 -8.88,-4.31 -13.3,-6.51 A 56.08,56.08 0 0 0 341.49,239 c -9.05,0.32 -18.89,3.5 -22.6,10.49 -5.42,10.18 4.55,23 -1.49,32.91 -4.44,7.28 -15.21,9.43 -24.14,12.59 a 65.88,65.88 0 0 0 -24.64,15.27 c -7,7 -12,16.6 -8.48,25.28 2.05,5.09 6.68,9.07 10.36,13.46 a 43,43 0 0 1 2.69,52.28 c -1.72,2.47 -3.73,4.88 -4.44,7.68 -1.7,6.68 5.16,13.4 13.09,14.7 7.93,1.3 16.16,-1.66 22.33,-6.03 a 40.15,40.15 0 0 0 13.31,-15.48 c 7.33,-15.54 2.18,-33 1.45,-49.73 -0.09,-1.95 0,-4.07 1.37,-5.6 2.12,-2.29 6.12,-2.23 9.54,-2.53 8.85,-0.78 17,-5.74 20.75,-12.58 7.17,-13.16 -1.18,-31.55 11.35,-41.45 15.77,-12.46 38.47,7.24 50.18,-5.55 z"
       inkscape:connector-curvature="0"
       style="fill:#3f3d56" />
    <path
       id="path308"
       transform="translate(-79.34,-161.25)"
       d="m 400.25,254.47 h -0.1 c 4.68,5.42 6.44,12.74 3.66,19.06 a 15.4,15.4 0 0 1 -2.69,4.2 c -11.71,12.79 -34.41,-6.91 -50.18,5.55 -12.53,9.9 -4.18,28.29 -11.35,41.45 -3.72,6.84 -11.9,11.8 -20.75,12.58 -3.42,0.3 -7.42,0.24 -9.54,2.53 -1.41,1.53 -1.46,3.65 -1.37,5.6 0.73,16.73 5.88,34.19 -1.45,49.73 a 40.15,40.15 0 0 1 -13.31,15.48 C 287,415 278.78,418 270.84,416.7 l -0.55,-0.12 a 17.54,17.54 0 0 0 11.55,7.12 c 7.94,1.29 16.11,-1.71 22.33,-6.07 a 40.15,40.15 0 0 0 13.31,-15.48 c 7.33,-15.54 2.18,-33 1.45,-49.73 -0.09,-1.95 0,-4.07 1.37,-5.6 2.12,-2.29 6.12,-2.23 9.54,-2.53 8.85,-0.78 17,-5.74 20.75,-12.58 7.17,-13.16 -1.18,-31.55 11.35,-41.45 15.77,-12.46 38.47,7.24 50.18,-5.55 a 15.4,15.4 0 0 0 2.69,-4.2 c 4.42,-10.03 -2.59,-22.51 -14.56,-26.04 z"
       inkscape:connector-curvature="0"
       style="opacity:0.1" />
  </g>
</svg>
